<svg data-v-423bf9ae="" xmlns="http://www.w3.org/2000/svg" viewBox="0 0 113.03978104503565 177" class="iconAboveSlogan"><!----><!----><!----><g data-v-423bf9ae="" id="bc9e3142-a384-4a62-9284-5e047eb57f93" fill="#240D1B" transform="matrix(2.840909242630005,0,0,2.840909242630005,-0.82386714220047,103.11965942382812)"><path d="M9.87 2.37L9.87 2.37L9.87 2.37Q10.07 2.37 10.07 2.64L10.07 2.64L10.07 2.64Q10.07 2.91 9.52 3.91L9.52 3.91L9.52 3.91Q8.97 4.90 8.61 5.40L8.61 5.40L8.61 5.40Q8.39 5.74 8.09 5.74L8.09 5.74L8.09 5.74Q7.78 5.74 7.78 5.54L7.78 5.54L7.80 5.42L7.80 5.42Q7.98 4.73 7.98 4.26L7.98 4.26L7.98 4.26Q7.98 3.53 7.59 3.53L7.59 3.53L7.59 3.53Q7.42 3.53 7.25 3.65L7.25 3.65L7.25 3.65Q7.08 3.77 7 3.89L7 3.89L6.92 4.02L6.92 4.02Q6.72 4.34 4.55 8.02L4.55 8.02L4.55 8.02Q4.06 8.86 3.54 9.93L3.54 9.93L3.54 9.93Q3.02 11.00 2.70 11.61L2.70 11.61L2.70 11.61Q2.38 12.22 2.06 12.48L2.06 12.48L2.06 12.48Q1.74 12.74 1.02 12.74L1.02 12.74L1.02 12.74Q0.29 12.74 0.29 12.50L0.29 12.50L0.29 12.46L0.29 12.46Q0.29 12.32 1.04 11.14L1.04 11.14L1.04 11.14Q3.77 6.85 5.17 4.12L5.17 4.12L5.17 4.12Q5.29 3.86 5.29 3.75L5.29 3.75L5.29 3.75Q5.29 3.57 5.05 3.57L5.05 3.57L5.05 3.57Q4.28 3.57 2.70 5.31L2.70 5.31L2.70 5.31Q2.55 5.59 1.99 5.59L1.99 5.59L1.99 5.59Q1.86 5.59 1.86 5.46L1.86 5.46L1.86 5.46Q1.86 5.36 2.04 5.05L2.04 5.05L2.32 4.55L2.32 4.55Q3.56 2.39 3.93 2.39L3.93 2.39L3.93 2.39Q4.66 2.39 5.03 2.67L5.03 2.67L5.03 2.67Q6.01 2.65 6.83 2.65L6.83 2.65L6.83 2.65Q7.66 2.65 8.47 2.67L8.47 2.67L8.47 2.67Q9.17 2.37 9.87 2.37ZM7.45 11.86L7.45 11.86L7.48 11.56L7.48 11.56Q7.48 11.45 7.39 11.45L7.39 11.45L7.39 11.45Q7.27 11.45 6.88 11.82L6.88 11.82L6.88 11.82Q6.50 12.18 5.92 12.55L5.92 12.55L5.92 12.55Q5.33 12.92 4.75 12.92L4.75 12.92L4.75 12.92Q4.17 12.92 4.17 12.07L4.17 12.07L4.17 12.07Q4.17 11.00 5.10 9.62L5.10 9.62L5.10 9.62Q5.57 8.92 6.20 8.32L6.20 8.32L6.20 8.32Q6.82 7.73 7.71 7.34L7.71 7.34L7.71 7.34Q8.61 6.96 9.59 6.96L9.59 6.96L9.59 6.96Q10.11 6.96 10.47 7.23L10.47 7.23L10.47 7.23Q10.84 7.50 10.84 7.90L10.84 7.90L10.84 7.90Q10.84 8.30 10.60 8.30L10.60 8.30L10.60 8.30Q10.47 8.30 10.26 8.15L10.26 8.15L10.26 8.15Q9.87 7.88 9.03 7.88L9.03 7.88L9.03 7.88Q7.92 7.88 6.94 8.88L6.94 8.88L6.94 8.88Q5.95 9.88 5.95 10.86L5.95 10.86L5.95 10.86Q5.95 10.99 6.03 11.10L6.03 11.10L6.03 11.10Q6.10 11.21 6.24 11.21L6.24 11.21L6.24 11.21Q6.66 11.21 7.32 10.63L7.32 10.63L7.32 10.63Q7.98 10.05 8.61 8.96L8.61 8.96L8.61 8.96Q8.65 8.83 8.92 8.72L8.92 8.72L8.92 8.72Q9.18 8.61 9.55 8.61L9.55 8.61L9.55 8.61Q10.07 8.65 10.07 8.83L10.07 8.83L10.07 8.83Q10.07 8.85 9.96 9.01L9.96 9.01L9.96 9.01Q9.86 9.17 9.59 9.59L9.59 9.59L9.59 9.59Q9.32 10.01 8.84 10.97L8.84 10.97L8.84 10.97Q8.36 11.93 8.27 12.49L8.27 12.49L8.27 12.49Q8.26 12.66 8.13 12.66L8.13 12.66L8.13 12.66Q7.45 12.66 7.45 11.86ZM13.93 7.24L13.93 7.24L14.17 7.25L14.17 7.25Q14.41 7.25 14.55 7.01L14.55 7.01L14.55 7.01Q14.66 6.71 15.37 6.71L15.37 6.71L15.37 6.71Q16.09 6.72 16.09 7.01L16.09 7.01L16.09 7.01Q16.09 7.06 15.76 7.38L15.76 7.38L15.76 7.38Q15.44 7.70 14.98 8.30L14.98 8.30L14.98 8.30Q14.52 8.89 14.27 9.49L14.27 9.49L14.27 9.49Q14.24 9.58 14.05 9.58L14.05 9.58L14.05 9.58Q13.86 9.58 13.75 9.40L13.75 9.40L13.75 9.40Q13.64 9.23 13.64 9.02L13.64 9.02L13.64 9.02Q13.64 8.82 13.69 8.67L13.69 8.67L13.69 8.67Q13.73 8.51 13.73 8.44L13.73 8.44L13.73 8.44Q13.73 8.18 13.44 8.18L13.44 8.18L13.44 8.18Q12.63 8.18 12.00 9.11L12.00 9.11L12.00 9.11Q11.37 10.04 11.37 10.81L11.37 10.81L11.37 10.81Q11.37 11.83 12.36 11.83L12.36 11.83L12.36 11.83Q12.96 11.83 13.41 11.55L13.41 11.55L13.41 11.55Q13.51 11.47 13.61 11.47L13.61 11.47L13.61 11.47Q13.76 11.47 13.76 11.62L13.76 11.62L13.76 11.62Q13.76 11.98 13.10 12.47L13.10 12.47L13.10 12.47Q12.45 12.95 11.53 12.95L11.53 12.95L11.53 12.95Q10.61 12.95 10.27 12.50L10.27 12.50L10.27 12.50Q9.93 12.04 9.93 11.49L9.93 11.49L9.93 11.49Q9.93 10.93 10.23 10.23L10.23 10.23L10.23 10.23Q10.53 9.53 11.03 8.86L11.03 8.86L11.03 8.86Q11.52 8.18 12.31 7.71L12.31 7.71L12.31 7.71Q13.09 7.24 13.93 7.24ZM20.65 7.17L20.65 7.17L20.65 7.17Q21.25 7.17 21.25 7.87L21.25 7.87L21.25 7.87Q21.25 8.57 20.76 9.63L20.76 9.63L20.76 9.63Q20.05 11.13 19.14 12.22L19.14 12.22L19.14 12.22Q18.70 12.74 18.05 12.74L18.05 12.74L18.05 12.74Q17.84 12.74 17.84 12.63L17.84 12.63L17.89 12.47L17.89 12.47Q18.55 11.51 19.06 10.48L19.06 10.48L19.06 10.48Q19.57 9.45 19.57 8.99L19.57 8.99L19.57 8.99Q19.57 8.90 19.52 8.85L19.52 8.85L19.52 8.85Q19.47 8.79 19.36 8.78L19.36 8.78L19.36 8.78Q18.79 8.78 17.82 9.72L17.82 9.72L17.82 9.72Q16.84 10.65 16.14 11.61L16.14 11.61L16.14 11.61Q15.43 12.56 15.23 12.93L15.23 12.93L15.23 12.93Q15.02 13.30 14.81 13.38L14.81 13.38L14.81 13.38Q14.60 13.45 14.13 13.45L14.13 13.45L14.13 13.45Q13.65 13.45 13.65 13.29L13.65 13.29L13.65 13.29Q13.65 13.23 13.78 13.02L13.78 13.02L13.78 13.02Q13.92 12.81 14.79 11.13L14.79 11.13L14.79 11.13Q15.67 9.45 16.64 7.71L16.64 7.71L16.64 7.71Q17.61 5.96 18.77 4.14L18.77 4.14L18.77 4.14Q19.92 2.32 21.08 1.17L21.08 1.17L21.08 1.17Q22.23 0.01 23.09 0.01L23.09 0.01L23.09 0.01Q23.74 0.01 23.74 0.78L23.74 0.78L23.74 0.78Q23.74 2.27 22.39 3.96L22.39 3.96L22.39 3.96Q21.04 5.66 19.92 6.17L19.92 6.17L19.92 6.17Q19.67 6.29 19.40 6.29L19.40 6.29L19.40 6.29Q19.12 6.29 19.12 6.16L19.12 6.16L19.21 6.02L19.21 6.02Q20.58 5.07 21.39 3.82L21.39 3.82L21.39 3.82Q22.19 2.58 22.19 2.07L22.19 2.07L22.19 2.07Q22.19 1.90 22.15 1.84L22.15 1.84L22.15 1.84Q22.11 1.78 21.95 1.78L21.95 1.78L21.95 1.78Q21.45 1.78 20.31 3.42L20.31 3.42L20.31 3.42Q19.17 5.05 18.26 6.79L18.26 6.79L18.26 6.79Q17.35 8.53 17.35 8.90L17.35 8.90L17.35 8.90Q17.35 9.06 17.45 9.06L17.45 9.06L17.45 9.06Q17.56 9.06 17.74 8.92L17.74 8.92L17.74 8.92Q17.95 8.72 18.28 8.43L18.28 8.43L18.28 8.43Q18.61 8.13 19.38 7.65L19.38 7.65L19.38 7.65Q20.16 7.17 20.65 7.17ZM17.78 21.13L17.78 21.13L17.78 21.13Q17.19 21.13 17.19 20.15L17.19 20.15L17.19 20.15Q17.19 19.17 17.77 17.97L17.77 17.97L17.77 17.97Q18.34 16.77 19.14 15.77L19.14 15.77L19.14 15.77Q19.95 14.77 20.86 14.07L20.86 14.07L20.86 14.07Q21.77 13.37 22.39 13.37L22.39 13.37L22.39 13.37Q22.60 13.37 22.60 13.47L22.60 13.47L22.60 13.47Q22.60 13.57 22.43 13.65L22.43 13.65L22.43 13.65Q21.90 13.93 21.08 14.85L21.08 14.85L21.08 14.85Q20.26 15.76 19.59 16.95L19.59 16.95L19.59 16.95Q18.93 18.13 18.93 18.94L18.93 18.94L18.93 18.94Q18.93 19.29 19.18 19.29L19.18 19.29L19.18 19.29Q19.67 19.29 20.66 17.92L20.66 17.92L20.66 17.92Q22.27 15.72 23.95 12.32L23.95 12.32L23.95 12.32Q24.46 11.31 24.46 11.12L24.46 11.12L24.46 11.12Q24.46 10.92 24.35 10.92L24.35 10.92L24.35 10.92Q24.21 10.92 24.07 11.06L24.07 11.06L24.07 11.06Q22.50 12.40 21.63 12.40L21.63 12.40L21.63 12.40Q21 12.40 21 11.73L21 11.73L21 11.73Q21 11.05 21.75 9.63L21.75 9.63L21.75 9.63Q22.50 8.20 23.27 7.43L23.27 7.43L23.27 7.43Q23.44 7.27 23.73 7.16L23.73 7.16L23.73 7.16Q24.02 7.06 24.34 7.06L24.34 7.06L24.34 7.06Q24.65 7.06 24.65 7.20L24.65 7.20L24.65 7.20Q24.65 7.25 24.21 7.84L24.21 7.84L24.21 7.84Q22.85 9.65 22.85 10.42L22.85 10.42L22.85 10.42Q22.85 10.75 23.14 10.75L23.14 10.75L23.14 10.75Q23.66 10.75 24.75 9.74L24.75 9.74L24.75 9.74Q25.83 8.74 26.64 7.38L26.64 7.38L26.64 7.38Q26.89 6.87 27.76 6.87L27.76 6.87L27.76 6.87Q28.18 6.87 28.18 7.04L28.18 7.04L28.18 7.04Q28.18 7.08 28.14 7.15L28.14 7.15L28.14 7.15Q26.78 9.39 25.66 11.47L25.66 11.47L25.66 11.47Q24.54 13.55 23.86 14.68L23.86 14.68L23.86 14.68Q23.18 15.81 22.35 17.02L22.35 17.02L22.35 17.02Q21.52 18.24 20.76 19.12L20.76 19.12L20.76 19.12Q19.99 19.99 19.20 20.56L19.20 20.56L19.20 20.56Q18.41 21.13 17.78 21.13ZM27.75 12.53L27.75 12.53L27.75 12.53Q27.43 12.38 27.22 11.98L27.22 11.98L27.22 11.98Q27.02 11.59 27.02 11.02L27.02 11.02L27.02 11.02Q27.02 10.12 27.60 9.14L27.60 9.14L27.60 9.14Q28.18 8.16 29.24 7.46L29.24 7.46L29.24 7.46Q30.30 6.76 31.47 6.76L31.47 6.76L31.47 6.76Q32.02 6.76 32.38 7.06L32.38 7.06L32.38 7.06Q32.75 7.35 32.75 7.64L32.75 7.64L32.75 7.64Q32.75 7.92 32.66 8.09L32.66 8.09L32.66 8.09Q32.58 8.26 32.58 8.32L32.58 8.32L32.58 8.32Q32.58 8.48 32.84 8.48L32.84 8.48L32.84 8.48Q33.11 8.48 33.25 8.41L33.25 8.41L33.25 8.41Q33.39 8.34 33.42 8.34L33.42 8.34L33.42 8.34Q33.53 8.34 33.53 8.63L33.53 8.63L33.53 8.63Q33.53 8.92 33.25 9.30L33.25 9.30L33.25 9.30Q32.97 9.69 32.56 9.87L32.56 9.87L32.56 9.87Q32.51 9.98 32.41 10.19L32.41 10.19L32.41 10.19Q32.31 10.39 31.95 10.89L31.95 10.89L31.95 10.89Q31.58 11.38 31.17 11.77L31.17 11.77L31.17 11.77Q30.76 12.15 30.08 12.47L30.08 12.47L30.08 12.47Q29.40 12.78 28.84 12.78L28.84 12.78L28.84 12.78Q28.28 12.78 27.75 12.53ZM30.87 10.12L30.87 10.12L30.87 10.12Q30.87 10.01 30.74 10.01L30.74 10.01L30.74 10.01Q30.56 10.01 30.33 10.09L30.33 10.09L30.33 10.09Q30.10 10.18 30.07 10.18L30.07 10.18L30.07 10.18Q29.99 10.18 29.99 10.05L29.99 10.05L29.99 10.05Q29.99 9.51 30.38 9.11L30.38 9.11L30.38 9.11Q30.53 8.95 30.83 8.83L30.83 8.83L30.83 8.83Q31.12 8.71 31.28 8.55L31.28 8.55L31.28 8.55Q31.44 8.39 31.44 7.99L31.44 7.99L31.44 7.99Q31.44 7.52 30.94 7.52L30.94 7.52L30.94 7.52Q30.04 7.52 29.23 8.79L29.23 8.79L29.23 8.79Q28.42 10.05 28.42 11.05L28.42 11.05L28.42 11.05Q28.42 11.38 28.65 11.62L28.65 11.62L28.65 11.62Q28.88 11.86 29.20 11.86L29.20 11.86L29.20 11.86Q29.93 11.86 30.40 11.25L30.40 11.25L30.40 11.25Q30.87 10.64 30.87 10.12ZM36.50 12.95L36.50 12.95L36.50 12.95Q36.11 12.95 36.11 12.77L36.11 12.77L36.13 12.68L36.13 12.68Q36.97 11.42 37.58 10.26L37.58 10.26L37.58 10.26Q38.18 9.09 38.18 8.74L38.18 8.74L38.18 8.74Q38.18 8.62 38.12 8.56L38.12 8.56L38.12 8.56Q38.07 8.50 37.95 8.48L37.95 8.48L37.95 8.48Q37.41 8.48 36.49 9.18L36.49 9.18L36.49 9.18Q35.57 9.88 34.88 10.63L34.88 10.63L34.88 10.63Q34.19 11.37 33.85 11.84L33.85 11.84L33.85 11.84Q33.52 12.31 32.84 12.31L32.84 12.31L32.84 12.31Q32.48 12.31 32.48 12.12L32.48 12.12L32.48 12.12Q32.48 11.76 33.85 9.55L33.85 9.55L33.85 9.55Q35.22 7.35 35.67 7.18L35.67 7.18L35.67 7.18Q35.91 7.04 36.28 7.04L36.28 7.04L36.28 7.04Q36.65 7.04 36.65 7.19L36.65 7.19L36.65 7.19Q36.65 7.34 36.32 7.83L36.32 7.83L36.32 7.83Q35.98 8.32 35.98 8.46L35.98 8.46L35.98 8.46Q36.01 8.57 36.10 8.57L36.10 8.57L36.10 8.57Q36.19 8.57 36.26 8.51L36.26 8.51L36.26 8.51Q38.33 6.90 39.56 6.90L39.56 6.90L39.56 6.90Q40.08 6.90 40.08 7.50L40.08 7.50L40.08 7.50Q40.08 7.90 39.50 9.20L39.50 9.20L39.50 9.20Q38.92 10.50 38.03 11.73L38.03 11.73L38.03 11.73Q37.14 12.95 36.50 12.95Z"></path></g><defs data-v-423bf9ae=""><linearGradient data-v-423bf9ae="" gradientTransform="rotate(25)" id="90deee2e-8826-4c8e-9ec4-00da79401efb" x1="0%" y1="0%" x2="100%" y2="0%"><stop data-v-423bf9ae="" offset="0%" style="stop-color: rgb(60, 17, 67); stop-opacity: 1;"></stop><stop data-v-423bf9ae="" offset="100%" style="stop-color: rgb(194, 81, 120); stop-opacity: 1;"></stop></linearGradient></defs><g data-v-423bf9ae="" id="15ac3ba4-88fc-4f3e-9a34-9c550896d651" transform="matrix(1.0008223056793213,0,0,1.0008223056793213,7.308383941650391,-4.0781731605529785)" stroke="none" fill="url(#90deee2e-8826-4c8e-9ec4-00da79401efb)"><path d="M82.65 5.03l-.109.085-63.706 49.717h27.702L17.501 94.896l-.152.208.109-.085 63.708-49.718H53.464L82.5 5.239z"></path></g><!----><g data-v-423bf9ae="" id="a7ff0aec-87e9-4759-9808-2bca1a4442b0" fill="#240D1B" transform="matrix(0.14125970005989075,0,0,0.14125970005989075,15.211213111877441,207.75714111328125)"><path d="M3.51 4.44C3.70 4.42 3.78 4.34 3.78 4.19L3.78 3.91L2.60 3.91L1.89 3.91L0.70 3.91L0.70 4.19C0.70 4.34 0.80 4.42 0.98 4.44L1.12 4.44C1.19 4.44 1.29 4.45 1.43 4.45C1.57 4.45 1.72 4.47 1.89 4.47L1.89 13.26C1.72 13.26 1.57 13.27 1.43 13.27C1.29 13.27 1.19 13.29 1.12 13.29L0.98 13.29C0.80 13.30 0.70 13.38 0.70 13.54L0.70 13.82L1.89 13.82L2.60 13.82L3.78 13.82L3.78 13.54C3.78 13.38 3.70 13.30 3.51 13.29L3.37 13.29C3.30 13.29 3.21 13.27 3.07 13.27C2.93 13.27 2.77 13.26 2.60 13.26L2.60 4.47C2.77 4.47 2.93 4.45 3.07 4.45C3.21 4.45 3.30 4.44 3.37 4.44ZM19.25 3.92L18.90 3.92L13.31 3.92L12.12 3.92L12.12 4.19C12.12 4.34 12.22 4.42 12.40 4.44L12.54 4.44C12.61 4.44 12.71 4.45 12.85 4.45C12.99 4.45 13.15 4.47 13.31 4.47L13.31 13.26C13.15 13.26 12.99 13.27 12.85 13.27C12.71 13.27 12.61 13.29 12.54 13.29L12.40 13.29C12.22 13.30 12.12 13.38 12.12 13.54L12.12 13.82L13.31 13.82L14.03 13.82L15.20 13.82L15.20 13.54C15.20 13.38 15.12 13.30 14.94 13.29L14.80 13.29C14.73 13.29 14.63 13.27 14.49 13.27C14.35 13.27 14.20 13.26 14.03 13.26L14.03 9.27L17.72 9.27L17.72 8.67L14.03 8.67L14.03 4.51L18.63 4.51C18.66 5.18 18.69 5.56 18.69 5.63C18.70 5.85 18.80 5.96 19.00 5.96L19.33 5.96L19.33 3.92ZM40.64 4.44C40.82 4.42 40.91 4.34 40.91 4.19L40.91 3.91L39.73 3.91L39.02 3.91L37.83 3.91L37.83 4.19C37.83 4.34 37.93 4.42 38.11 4.44L38.25 4.44C38.32 4.44 38.42 4.45 38.56 4.45C38.70 4.45 38.85 4.47 39.02 4.47L39.02 13.26C38.85 13.26 38.70 13.27 38.56 13.27C38.42 13.27 38.32 13.29 38.25 13.29L38.11 13.29C37.93 13.30 37.83 13.38 37.83 13.54L37.83 13.82L39.02 13.82L39.73 13.82L40.91 13.82L40.91 13.54C40.91 13.38 40.82 13.30 40.64 13.29L40.50 13.29C40.43 13.29 40.33 13.27 40.19 13.27C40.05 13.27 39.90 13.26 39.73 13.26L39.73 4.47C39.90 4.47 40.05 4.45 40.19 4.45C40.33 4.45 40.43 4.44 40.50 4.44ZM56.77 3.92L56.57 3.92L49.28 3.92L49.07 3.92L48.97 3.92L48.97 5.96L49.32 5.96C49.52 5.96 49.60 5.85 49.62 5.63C49.62 5.53 49.64 5.17 49.67 4.52L52.57 4.52L52.57 13.26C52.40 13.26 52.26 13.27 52.12 13.27C51.98 13.27 51.87 13.29 51.80 13.29L51.67 13.29C51.49 13.30 51.39 13.38 51.39 13.54L51.39 13.82L52.57 13.82L53.28 13.82L54.47 13.82L54.47 13.54C54.47 13.38 54.38 13.30 54.19 13.29L54.05 13.29C53.98 13.29 53.89 13.27 53.75 13.27C53.61 13.27 53.45 13.26 53.28 13.26L53.28 4.52L56.17 4.52C56.21 5.24 56.22 5.60 56.22 5.63C56.24 5.85 56.34 5.96 56.53 5.96L56.87 5.96L56.87 3.92ZM83.08 12.21C83.05 12.18 83.01 12.15 82.96 12.15C82.94 12.15 82.92 12.15 82.89 12.17C82.88 12.18 82.85 12.21 82.82 12.22C82.63 12.40 82.42 12.56 82.22 12.70C82.03 12.84 81.82 12.94 81.58 13.03C81.34 13.13 81.09 13.20 80.81 13.24C80.53 13.29 80.22 13.31 79.87 13.31C79.31 13.31 78.76 13.22 78.29 13.01C77.80 12.81 77.39 12.52 77.04 12.14C76.69 11.76 76.40 11.28 76.20 10.74C76.01 10.19 75.91 9.56 75.91 8.86C75.91 8.18 76.01 7.56 76.20 7.01C76.41 6.47 76.69 6.01 77.06 5.61C77.42 5.24 77.85 4.94 78.36 4.73C78.86 4.52 79.41 4.42 80.01 4.42C80.91 4.42 81.73 4.56 82.46 4.89C82.50 5.78 82.54 6.30 82.54 6.41C82.56 6.64 82.64 6.75 82.84 6.75L83.17 6.75L83.17 4.51C82.00 4.03 80.93 3.81 80.01 3.81C79.30 3.81 78.65 3.92 78.05 4.17C77.46 4.42 76.93 4.76 76.51 5.21C76.08 5.66 75.75 6.19 75.52 6.80C75.28 7.42 75.17 8.11 75.17 8.86C75.17 9.63 75.29 10.32 75.52 10.95C75.74 11.58 76.06 12.10 76.47 12.54C76.87 12.99 77.36 13.33 77.94 13.57C78.51 13.80 79.13 13.93 79.81 13.93C80.22 13.93 80.60 13.90 80.95 13.83C81.28 13.76 81.61 13.66 81.90 13.54C82.18 13.41 82.45 13.26 82.68 13.09C82.92 12.91 83.15 12.73 83.36 12.50ZM100.66 13.22L100.20 13.17L96.42 3.91L95.70 3.91L91.91 13.17L91.46 13.22C91.28 13.23 91.20 13.33 91.20 13.50L91.20 13.82L91.64 13.82L91.94 13.82L92.19 13.82L92.29 13.82L93.60 13.82L93.60 13.50C93.60 13.31 93.49 13.23 93.28 13.22C93.27 13.22 93.24 13.20 93.20 13.20C93.16 13.20 93.10 13.19 93.00 13.19C92.90 13.19 92.78 13.19 92.64 13.17L93.62 10.75L93.69 10.57L98.42 10.57L98.49 10.75L99.47 13.17C99.33 13.19 99.22 13.19 99.12 13.19C99.02 13.19 98.95 13.20 98.91 13.20C98.87 13.20 98.84 13.22 98.83 13.22C98.62 13.23 98.50 13.31 98.50 13.50L98.50 13.82L99.82 13.82L99.92 13.82L100.18 13.82L100.46 13.82L100.93 13.82L100.93 13.50C100.93 13.33 100.84 13.23 100.66 13.22ZM95.86 5.22C95.89 5.14 95.93 5.04 95.96 4.94C95.98 4.84 96.03 4.75 96.05 4.63C96.08 4.75 96.12 4.84 96.15 4.94C96.18 5.04 96.22 5.12 96.25 5.21L98.21 10.04L93.91 10.04ZM117.99 3.92L117.36 3.92L116.14 3.92L116.14 4.19C116.14 4.34 116.24 4.42 116.42 4.44L116.56 4.44C116.63 4.44 116.75 4.45 116.89 4.45C117.03 4.45 117.19 4.47 117.36 4.47L117.36 12.22C117.36 12.35 117.36 12.49 117.38 12.63L110.96 4.05C110.92 3.99 110.89 3.95 110.85 3.93C110.81 3.92 110.77 3.91 110.70 3.91L110.35 3.91L109.16 3.91L109.16 4.19C109.16 4.34 109.26 4.42 109.44 4.44L109.58 4.44C109.65 4.44 109.75 4.45 109.89 4.45C110.03 4.45 110.18 4.47 110.35 4.47L110.35 13.26C110.18 13.26 110.03 13.27 109.89 13.27C109.75 13.27 109.65 13.29 109.58 13.29L109.44 13.29C109.26 13.30 109.16 13.38 109.16 13.54L109.16 13.82L110.35 13.82L110.96 13.82L112.18 13.82L112.18 13.54C112.18 13.38 112.08 13.30 111.90 13.29L111.76 13.29C111.69 13.29 111.57 13.27 111.43 13.27C111.29 13.27 111.13 13.26 110.96 13.26L110.96 5.49C110.96 5.36 110.96 5.22 110.95 5.08L117.39 13.68C117.46 13.78 117.53 13.82 117.64 13.82L117.99 13.82L117.99 4.47C118.16 4.47 118.30 4.45 118.44 4.45C118.58 4.45 118.69 4.44 118.76 4.44L118.89 4.44C119.07 4.42 119.17 4.34 119.17 4.19L119.17 3.92ZM145.57 13.29L145.47 13.29L145.29 13.29C145.21 13.29 145.12 13.27 145.04 13.27L142.07 9.53C141.99 9.42 141.88 9.32 141.76 9.25C142.20 9.21 142.59 9.11 142.94 8.96C143.29 8.81 143.57 8.61 143.82 8.37C144.06 8.13 144.26 7.85 144.38 7.55C144.51 7.24 144.58 6.89 144.58 6.51C144.58 5.66 144.30 5.03 143.74 4.58C143.18 4.14 142.32 3.92 141.18 3.92L138.77 3.92L137.59 3.92L137.59 4.19C137.59 4.34 137.68 4.42 137.86 4.44L138.00 4.44C138.07 4.44 138.17 4.45 138.31 4.45C138.45 4.45 138.60 4.47 138.77 4.47L138.77 13.26C138.60 13.26 138.45 13.27 138.31 13.27C138.17 13.27 138.07 13.29 138.00 13.29L137.86 13.29C137.68 13.30 137.58 13.38 137.58 13.54L137.58 13.82L138.77 13.82L139.48 13.82L140.66 13.82L140.66 13.54C140.66 13.38 140.56 13.30 140.38 13.29L140.24 13.29C140.17 13.29 140.07 13.27 139.93 13.27C139.79 13.27 139.65 13.26 139.48 13.26L139.48 9.34L140.66 9.34C140.85 9.34 140.99 9.35 141.08 9.39C141.16 9.44 141.25 9.52 141.33 9.62L144.51 13.64C144.56 13.71 144.61 13.75 144.66 13.78C144.72 13.80 144.79 13.82 144.86 13.82L144.93 13.82L145.47 13.82L145.84 13.82L145.84 13.54C145.84 13.38 145.75 13.30 145.57 13.29ZM141.08 8.81L139.48 8.81L139.48 4.48L141.18 4.48C142.06 4.48 142.73 4.66 143.19 5.00C143.65 5.33 143.88 5.87 143.88 6.57C143.88 6.92 143.82 7.21 143.70 7.49C143.57 7.77 143.37 7.99 143.14 8.19C142.90 8.39 142.60 8.55 142.25 8.65C141.90 8.75 141.51 8.81 141.08 8.81ZM162.15 3.92L161.43 3.92L160.08 3.92L160.08 4.19C160.08 4.34 160.17 4.42 160.36 4.44L160.52 4.44C160.62 4.44 160.76 4.45 160.93 4.45C161.10 4.45 161.27 4.47 161.43 4.47L161.43 10.04C161.43 10.50 161.36 10.92 161.22 11.33C161.08 11.73 160.89 12.08 160.62 12.38C160.36 12.67 160.05 12.89 159.67 13.06C159.29 13.23 158.87 13.31 158.40 13.31C157.92 13.31 157.49 13.23 157.11 13.06C156.73 12.89 156.41 12.66 156.16 12.36C155.89 12.07 155.71 11.72 155.57 11.33C155.43 10.93 155.36 10.50 155.36 10.04L155.36 4.47C155.53 4.47 155.69 4.45 155.86 4.45C156.03 4.45 156.17 4.44 156.27 4.44L156.44 4.44C156.62 4.42 156.72 4.34 156.72 4.19L156.72 3.92L155.36 3.92L154.64 3.92L153.47 3.92L153.47 4.19C153.47 4.34 153.55 4.42 153.73 4.44L153.87 4.44C153.94 4.44 154.04 4.45 154.18 4.45C154.32 4.45 154.48 4.47 154.64 4.47L154.64 10.04C154.64 10.58 154.73 11.09 154.90 11.56C155.06 12.04 155.32 12.46 155.64 12.81C155.96 13.16 156.37 13.44 156.83 13.64C157.29 13.83 157.82 13.93 158.40 13.93C158.97 13.93 159.49 13.83 159.95 13.64C160.41 13.44 160.82 13.16 161.14 12.81C161.46 12.46 161.71 12.04 161.88 11.56C162.05 11.09 162.15 10.58 162.15 10.04L162.15 4.47C162.32 4.47 162.46 4.45 162.60 4.45C162.74 4.45 162.85 4.44 162.92 4.44L163.04 4.44C163.23 4.42 163.32 4.34 163.32 4.19L163.32 3.92ZM180.18 3.92L179.55 3.92L178.33 3.92L178.33 4.19C178.33 4.34 178.43 4.42 178.61 4.44L178.75 4.44C178.82 4.44 178.93 4.45 179.07 4.45C179.21 4.45 179.38 4.47 179.55 4.47L179.55 12.22C179.55 12.35 179.55 12.49 179.56 12.63L173.15 4.05C173.11 3.99 173.08 3.95 173.04 3.93C173.00 3.92 172.96 3.91 172.89 3.91L172.54 3.91L171.35 3.91L171.35 4.19C171.35 4.34 171.44 4.42 171.63 4.44L171.77 4.44C171.84 4.44 171.93 4.45 172.07 4.45C172.21 4.45 172.37 4.47 172.54 4.47L172.54 13.26C172.37 13.26 172.21 13.27 172.07 13.27C171.93 13.27 171.84 13.29 171.77 13.29L171.63 13.29C171.44 13.30 171.35 13.38 171.35 13.54L171.35 13.82L172.54 13.82L173.15 13.82L174.37 13.82L174.37 13.54C174.37 13.38 174.27 13.30 174.09 13.29L173.95 13.29C173.88 13.29 173.75 13.27 173.61 13.27C173.47 13.27 173.32 13.26 173.15 13.26L173.15 5.49C173.15 5.36 173.15 5.22 173.14 5.08L179.58 13.68C179.65 13.78 179.72 13.82 179.83 13.82L180.18 13.82L180.18 4.47C180.35 4.47 180.49 4.45 180.63 4.45C180.77 4.45 180.88 4.44 180.95 4.44L181.08 4.44C181.26 4.42 181.36 4.34 181.36 4.19L181.36 3.92ZM206.89 3.92L206.54 3.92L200.96 3.92L199.77 3.92L199.77 4.19C199.77 4.34 199.86 4.42 200.05 4.44L200.19 4.44C200.26 4.44 200.35 4.45 200.49 4.45C200.63 4.45 200.79 4.47 200.96 4.47L200.96 13.26C200.79 13.26 200.63 13.27 200.49 13.27C200.35 13.27 200.26 13.29 200.19 13.29L200.05 13.29C199.86 13.30 199.77 13.38 199.77 13.54L199.77 13.82L200.96 13.82L201.67 13.82L202.85 13.82L202.85 13.54C202.85 13.38 202.76 13.30 202.58 13.29L202.44 13.29C202.37 13.29 202.27 13.27 202.13 13.27C201.99 13.27 201.84 13.26 201.67 13.26L201.67 9.27L205.37 9.27L205.37 8.67L201.67 8.67L201.67 4.51L206.28 4.51C206.30 5.18 206.33 5.56 206.33 5.63C206.35 5.85 206.44 5.96 206.64 5.96L206.98 5.96L206.98 3.92ZM223.58 13.22L223.12 13.17L219.34 3.91L218.62 3.91L214.83 13.17L214.38 13.22C214.20 13.23 214.12 13.33 214.12 13.50L214.12 13.82L214.56 13.82L214.86 13.82L215.11 13.82L215.21 13.82L216.52 13.82L216.52 13.50C216.52 13.31 216.41 13.23 216.20 13.22C216.19 13.22 216.16 13.20 216.12 13.20C216.08 13.20 216.02 13.19 215.92 13.19C215.82 13.19 215.70 13.19 215.56 13.17L216.54 10.75L216.61 10.57L221.34 10.57L221.41 10.75L222.39 13.17C222.25 13.19 222.14 13.19 222.04 13.19C221.94 13.19 221.87 13.20 221.83 13.20C221.79 13.20 221.76 13.22 221.75 13.22C221.54 13.23 221.42 13.31 221.42 13.50L221.42 13.82L222.74 13.82L222.84 13.82L223.10 13.82L223.38 13.82L223.85 13.82L223.85 13.50C223.85 13.33 223.76 13.23 223.58 13.22ZM218.78 5.22C218.81 5.14 218.85 5.04 218.88 4.94C218.90 4.84 218.95 4.75 218.97 4.63C219.00 4.75 219.04 4.84 219.07 4.94C219.10 5.04 219.14 5.12 219.17 5.21L221.13 10.04L216.83 10.04ZM237.80 9.91C237.66 9.65 237.47 9.39 237.23 9.21C236.99 9.03 236.74 8.88 236.45 8.75C236.15 8.62 235.83 8.51 235.52 8.41C235.21 8.32 234.91 8.20 234.61 8.11C234.32 7.99 234.05 7.87 233.81 7.71C233.58 7.56 233.39 7.38 233.25 7.15C233.11 6.93 233.03 6.65 233.03 6.31C233.03 6.06 233.09 5.82 233.18 5.59C233.28 5.35 233.42 5.15 233.60 4.97C233.79 4.79 234.01 4.65 234.29 4.55C234.57 4.45 234.88 4.40 235.24 4.40C235.91 4.40 236.53 4.51 237.09 4.75C237.13 5.54 237.16 5.99 237.16 6.06C237.17 6.29 237.26 6.41 237.45 6.41L237.79 6.41L237.79 4.38C236.91 4.00 236.07 3.81 235.24 3.81C234.78 3.81 234.37 3.88 234.01 4.02C233.65 4.16 233.35 4.34 233.11 4.58C232.88 4.82 232.68 5.08 232.55 5.39C232.43 5.70 232.37 6.02 232.37 6.36C232.37 6.78 232.44 7.14 232.58 7.42C232.72 7.70 232.92 7.92 233.16 8.12C233.39 8.32 233.65 8.46 233.94 8.58C234.23 8.71 234.56 8.82 234.86 8.92C235.17 9.02 235.47 9.11 235.77 9.21C236.07 9.31 236.33 9.45 236.57 9.60C236.81 9.76 236.99 9.94 237.13 10.16C237.27 10.39 237.34 10.68 237.34 11.03C237.34 11.35 237.29 11.66 237.17 11.94C237.06 12.22 236.91 12.46 236.70 12.67C236.49 12.88 236.22 13.05 235.91 13.16C235.61 13.29 235.26 13.33 234.86 13.33C234.08 13.33 233.42 13.20 232.89 12.95C232.88 12.75 232.88 12.54 232.86 12.32C232.85 12.10 232.85 11.91 232.83 11.76C232.82 11.61 232.82 11.52 232.82 11.51C232.81 11.28 232.71 11.17 232.51 11.17L232.18 11.17L232.18 13.02L232.18 13.20L232.18 13.38C233.03 13.75 233.91 13.93 234.84 13.93C235.34 13.93 235.79 13.85 236.18 13.69C236.57 13.54 236.91 13.31 237.17 13.05C237.44 12.78 237.66 12.46 237.80 12.10C237.94 11.73 238.01 11.34 238.01 10.92C238.01 10.51 237.94 10.18 237.80 9.91ZM253.79 3.92L253.60 3.92L246.30 3.92L246.09 3.92L245.99 3.92L245.99 5.96L246.34 5.96C246.54 5.96 246.62 5.85 246.64 5.63C246.64 5.53 246.67 5.17 246.69 4.52L249.59 4.52L249.59 13.26C249.42 13.26 249.28 13.27 249.14 13.27C249.00 13.27 248.89 13.29 248.82 13.29L248.70 13.29C248.51 13.30 248.42 13.38 248.42 13.54L248.42 13.82L249.59 13.82L250.31 13.82L251.50 13.82L251.50 13.54C251.50 13.38 251.40 13.30 251.22 13.29L251.08 13.29C251.01 13.29 250.91 13.27 250.77 13.27C250.63 13.27 250.47 13.26 250.31 13.26L250.31 4.52L253.19 4.52C253.23 5.24 253.25 5.60 253.25 5.63C253.26 5.85 253.36 5.96 253.55 5.96L253.89 5.96L253.89 3.92ZM263.19 3.92L262.00 3.92L262.00 4.19C262.00 4.34 262.09 4.42 262.28 4.44L262.42 4.44C262.49 4.44 262.58 4.45 262.72 4.45C262.86 4.45 263.02 4.47 263.19 4.47L263.19 13.26C263.02 13.26 262.86 13.27 262.72 13.27C262.58 13.27 262.49 13.29 262.42 13.29L262.28 13.29C262.09 13.30 262.01 13.38 262.01 13.54L262.01 13.82L263.19 13.82L269.12 13.82L269.12 13.22L269.12 11.76L268.77 11.76C268.58 11.76 268.49 11.89 268.48 12.11C268.48 12.14 268.46 12.19 268.46 12.29C268.46 12.39 268.46 12.53 268.45 12.74C268.44 12.95 268.42 13.09 268.42 13.22L263.90 13.22L263.90 9.09L267.85 9.09L267.85 8.51L263.90 8.51L263.90 4.51L268.42 4.51C268.45 5.12 268.48 5.50 268.48 5.63C268.49 5.85 268.58 5.96 268.77 5.96L269.12 5.96L269.12 4.51L269.12 3.92ZM285.70 13.29L285.60 13.29L285.42 13.29C285.33 13.29 285.25 13.27 285.17 13.27L282.20 9.53C282.11 9.42 282.00 9.32 281.89 9.25C282.32 9.21 282.72 9.11 283.07 8.96C283.42 8.81 283.70 8.61 283.95 8.37C284.19 8.13 284.38 7.85 284.51 7.55C284.63 7.24 284.70 6.89 284.70 6.51C284.70 5.66 284.42 5.03 283.86 4.58C283.30 4.14 282.45 3.92 281.30 3.92L278.89 3.92L277.72 3.92L277.72 4.19C277.72 4.34 277.80 4.42 277.98 4.44L278.12 4.44C278.19 4.44 278.29 4.45 278.43 4.45C278.57 4.45 278.73 4.47 278.89 4.47L278.89 13.26C278.73 13.26 278.57 13.27 278.43 13.27C278.29 13.27 278.19 13.29 278.12 13.29L277.98 13.29C277.80 13.30 277.70 13.38 277.70 13.54L277.70 13.82L278.89 13.82L279.61 13.82L280.78 13.82L280.78 13.54C280.78 13.38 280.69 13.30 280.50 13.29L280.36 13.29C280.29 13.29 280.20 13.27 280.06 13.27C279.92 13.27 279.78 13.26 279.61 13.26L279.61 9.34L280.78 9.34C280.98 9.34 281.12 9.35 281.20 9.39C281.29 9.44 281.37 9.52 281.46 9.62L284.63 13.64C284.69 13.71 284.73 13.75 284.79 13.78C284.84 13.80 284.91 13.82 284.98 13.82L285.05 13.82L285.60 13.82L285.96 13.82L285.96 13.54C285.96 13.38 285.88 13.30 285.70 13.29ZM281.20 8.81L279.61 8.81L279.61 4.48L281.30 4.48C282.18 4.48 282.86 4.66 283.32 5.00C283.78 5.33 284.00 5.87 284.00 6.57C284.00 6.92 283.95 7.21 283.82 7.49C283.70 7.77 283.50 7.99 283.26 8.19C283.02 8.39 282.73 8.55 282.38 8.65C282.03 8.75 281.64 8.81 281.20 8.81ZM307.36 4.44C307.54 4.42 307.62 4.34 307.62 4.19L307.62 3.91L306.45 3.91L305.73 3.91L304.54 3.91L304.54 4.19C304.54 4.34 304.64 4.42 304.82 4.44L304.96 4.44C305.03 4.44 305.13 4.45 305.27 4.45C305.41 4.45 305.56 4.47 305.73 4.47L305.73 13.26C305.56 13.26 305.41 13.27 305.27 13.27C305.13 13.27 305.03 13.29 304.96 13.29L304.82 13.29C304.64 13.30 304.54 13.38 304.54 13.54L304.54 13.82L305.73 13.82L306.45 13.82L307.62 13.82L307.62 13.54C307.62 13.38 307.54 13.30 307.36 13.29L307.22 13.29C307.15 13.29 307.05 13.27 306.91 13.27C306.77 13.27 306.61 13.26 306.45 13.26L306.45 4.47C306.61 4.47 306.77 4.45 306.91 4.45C307.05 4.45 307.15 4.44 307.22 4.44ZM323.48 3.92L323.29 3.92L315.99 3.92L315.78 3.92L315.69 3.92L315.69 5.96L316.04 5.96C316.23 5.96 316.32 5.85 316.33 5.63C316.33 5.53 316.36 5.17 316.39 4.52L319.28 4.52L319.28 13.26C319.12 13.26 318.98 13.27 318.84 13.27C318.70 13.27 318.58 13.29 318.51 13.29L318.39 13.29C318.21 13.30 318.11 13.38 318.11 13.54L318.11 13.82L319.28 13.82L320.00 13.82L321.19 13.82L321.19 13.54C321.19 13.38 321.09 13.30 320.91 13.29L320.77 13.29C320.70 13.29 320.60 13.27 320.46 13.27C320.32 13.27 320.17 13.26 320.00 13.26L320.00 4.52L322.88 4.52C322.92 5.24 322.94 5.60 322.94 5.63C322.95 5.85 323.05 5.96 323.25 5.96L323.58 5.96L323.58 3.92ZM347.79 9.91C347.65 9.65 347.45 9.39 347.21 9.21C346.98 9.03 346.72 8.88 346.43 8.75C346.14 8.62 345.81 8.51 345.51 8.41C345.20 8.32 344.89 8.20 344.60 8.11C344.30 7.99 344.04 7.87 343.80 7.71C343.56 7.56 343.38 7.38 343.24 7.15C343.10 6.93 343.01 6.65 343.01 6.31C343.01 6.06 343.07 5.82 343.17 5.59C343.27 5.35 343.41 5.15 343.59 4.97C343.77 4.79 343.99 4.65 344.27 4.55C344.55 4.45 344.86 4.40 345.23 4.40C345.90 4.40 346.51 4.51 347.07 4.75C347.12 5.54 347.14 5.99 347.14 6.06C347.16 6.29 347.24 6.41 347.44 6.41L347.77 6.41L347.77 4.38C346.89 4.00 346.05 3.81 345.23 3.81C344.76 3.81 344.36 3.88 343.99 4.02C343.63 4.16 343.34 4.34 343.10 4.58C342.86 4.82 342.66 5.08 342.54 5.39C342.41 5.70 342.36 6.02 342.36 6.36C342.36 6.78 342.43 7.14 342.57 7.42C342.71 7.70 342.90 7.92 343.14 8.12C343.38 8.32 343.63 8.46 343.92 8.58C344.22 8.71 344.54 8.82 344.85 8.92C345.16 9.02 345.45 9.11 345.76 9.21C346.05 9.31 346.32 9.45 346.56 9.60C346.79 9.76 346.98 9.94 347.12 10.16C347.26 10.39 347.33 10.68 347.33 11.03C347.33 11.35 347.27 11.66 347.16 11.94C347.05 12.22 346.89 12.46 346.68 12.67C346.47 12.88 346.21 13.05 345.90 13.16C345.59 13.29 345.24 13.33 344.85 13.33C344.06 13.33 343.41 13.20 342.87 12.95C342.86 12.75 342.86 12.54 342.85 12.32C342.83 12.10 342.83 11.91 342.82 11.76C342.80 11.61 342.80 11.52 342.80 11.51C342.79 11.28 342.69 11.17 342.50 11.17L342.16 11.17L342.16 13.02L342.16 13.20L342.16 13.38C343.01 13.75 343.90 13.93 344.82 13.93C345.32 13.93 345.77 13.85 346.16 13.69C346.56 13.54 346.89 13.31 347.16 13.05C347.42 12.78 347.65 12.46 347.79 12.10C347.93 11.73 348.00 11.34 348.00 10.92C348.00 10.51 347.93 10.18 347.79 9.91ZM365.99 4.44C366.17 4.42 366.27 4.34 366.27 4.19L366.27 3.92L365.09 3.92L364.36 3.92L363.19 3.92L363.19 4.19C363.19 4.34 363.29 4.42 363.47 4.44L363.59 4.44C363.66 4.44 363.78 4.45 363.92 4.45C364.06 4.45 364.20 4.47 364.36 4.47L364.36 8.53L358.16 8.53L358.16 4.47C358.33 4.47 358.48 4.45 358.62 4.45C358.76 4.45 358.86 4.44 358.93 4.44L359.07 4.44C359.25 4.42 359.34 4.34 359.34 4.19L359.34 3.92L358.16 3.92L357.45 3.92L356.26 3.92L356.26 4.19C356.26 4.34 356.36 4.42 356.54 4.44L356.68 4.44C356.75 4.44 356.85 4.45 356.99 4.45C357.13 4.45 357.28 4.47 357.45 4.47L357.45 13.26C357.28 13.26 357.13 13.27 356.99 13.27C356.85 13.27 356.75 13.29 356.68 13.29L356.54 13.29C356.36 13.30 356.26 13.38 356.26 13.54L356.26 13.82L357.45 13.82L358.16 13.82L359.34 13.82L359.34 13.54C359.34 13.38 359.25 13.30 359.07 13.29L358.93 13.29C358.86 13.29 358.76 13.27 358.62 13.27C358.48 13.27 358.33 13.26 358.16 13.26L358.16 9.07L364.36 9.07L364.36 13.26C364.20 13.26 364.06 13.27 363.92 13.27C363.78 13.27 363.66 13.29 363.59 13.29L363.47 13.29C363.29 13.30 363.19 13.38 363.19 13.54L363.19 13.82L364.36 13.82L365.09 13.82L366.27 13.82L366.27 13.54C366.27 13.38 366.17 13.30 365.99 13.29L365.86 13.29C365.79 13.29 365.68 13.27 365.54 13.27C365.40 13.27 365.26 13.26 365.09 13.26L365.09 4.47C365.26 4.47 365.40 4.45 365.54 4.45C365.68 4.45 365.79 4.44 365.86 4.44ZM383.88 8.86C383.88 8.11 383.75 7.41 383.53 6.79C383.31 6.17 382.98 5.64 382.56 5.19C382.14 4.75 381.65 4.40 381.08 4.16C380.51 3.92 379.85 3.79 379.15 3.79C378.45 3.79 377.82 3.92 377.24 4.16C376.67 4.40 376.17 4.75 375.75 5.19C375.33 5.64 375.00 6.17 374.78 6.79C374.56 7.41 374.43 8.11 374.43 8.86C374.43 9.63 374.56 10.33 374.78 10.95C375.00 11.56 375.33 12.10 375.75 12.54C376.17 12.99 376.67 13.33 377.24 13.57C377.82 13.80 378.45 13.93 379.15 13.93C379.85 13.93 380.51 13.80 381.08 13.57C381.65 13.33 382.14 12.99 382.56 12.54C382.98 12.10 383.31 11.56 383.53 10.95C383.75 10.33 383.88 9.63 383.88 8.86ZM383.12 8.86C383.12 9.56 383.04 10.18 382.84 10.72C382.65 11.27 382.38 11.75 382.03 12.12C381.68 12.50 381.26 12.81 380.77 13.01C380.28 13.20 379.75 13.30 379.15 13.30C378.56 13.30 378.03 13.20 377.54 13.01C377.05 12.81 376.63 12.50 376.28 12.12C375.93 11.75 375.65 11.27 375.45 10.72C375.26 10.18 375.17 9.56 375.17 8.86C375.17 8.18 375.26 7.55 375.45 7.00C375.65 6.45 375.93 5.98 376.28 5.60C376.63 5.22 377.05 4.91 377.54 4.72C378.03 4.52 378.56 4.41 379.15 4.41C379.75 4.41 380.28 4.52 380.77 4.72C381.26 4.91 381.68 5.22 382.03 5.60C382.38 5.98 382.65 6.45 382.84 7.00C383.04 7.55 383.12 8.18 383.12 8.86ZM400.12 3.92L399.41 3.92L398.05 3.92L398.05 4.19C398.05 4.34 398.15 4.42 398.33 4.44L398.50 4.44C398.59 4.44 398.73 4.45 398.90 4.45C399.07 4.45 399.24 4.47 399.41 4.47L399.41 10.04C399.41 10.50 399.34 10.92 399.20 11.33C399.06 11.73 398.86 12.08 398.59 12.38C398.33 12.67 398.02 12.89 397.64 13.06C397.26 13.23 396.84 13.31 396.37 13.31C395.89 13.31 395.46 13.23 395.08 13.06C394.70 12.89 394.38 12.66 394.13 12.36C393.86 12.07 393.68 11.72 393.54 11.33C393.40 10.93 393.33 10.50 393.33 10.04L393.33 4.47C393.50 4.47 393.67 4.45 393.83 4.45C394.00 4.45 394.14 4.44 394.24 4.44L394.41 4.44C394.59 4.42 394.69 4.34 394.69 4.19L394.69 3.92L393.33 3.92L392.62 3.92L391.44 3.92L391.44 4.19C391.44 4.34 391.52 4.42 391.71 4.44L391.85 4.44C391.92 4.44 392.01 4.45 392.15 4.45C392.29 4.45 392.45 4.47 392.62 4.47L392.62 10.04C392.62 10.58 392.70 11.09 392.87 11.56C393.04 12.04 393.29 12.46 393.61 12.81C393.93 13.16 394.34 13.44 394.80 13.64C395.26 13.83 395.79 13.93 396.37 13.93C396.94 13.93 397.46 13.83 397.92 13.64C398.38 13.44 398.79 13.16 399.11 12.81C399.43 12.46 399.69 12.04 399.85 11.56C400.02 11.09 400.12 10.58 400.12 10.04L400.12 4.47C400.29 4.47 400.43 4.45 400.57 4.45C400.71 4.45 400.82 4.44 400.89 4.44L401.02 4.44C401.20 4.42 401.30 4.34 401.30 4.19L401.30 3.92ZM415.69 11.97C415.49 11.97 415.41 12.08 415.39 12.31C415.39 12.32 415.39 12.38 415.38 12.43C415.37 12.49 415.37 12.59 415.35 12.71C415.34 12.84 415.32 13.01 415.31 13.20L411.22 13.20L411.22 4.47C411.39 4.47 411.53 4.45 411.67 4.45C411.81 4.45 411.92 4.44 411.99 4.44L412.12 4.44C412.30 4.42 412.40 4.34 412.40 4.19L412.40 3.92L411.22 3.92L410.51 3.92L409.32 3.92L409.32 4.19C409.32 4.34 409.42 4.42 409.60 4.44L409.74 4.44C409.81 4.44 409.91 4.45 410.05 4.45C410.19 4.45 410.34 4.47 410.51 4.47L410.51 13.26C410.34 13.26 410.19 13.27 410.05 13.27C409.91 13.27 409.81 13.29 409.74 13.29L409.60 13.29C409.42 13.30 409.32 13.38 409.32 13.54L409.32 13.82L410.51 13.82L415.79 13.82L415.91 13.82L416.04 13.82L416.04 13.55L416.04 12.99L416.04 11.97L415.76 11.97ZM433.47 6.80C433.24 6.19 432.92 5.68 432.50 5.25C432.08 4.82 431.59 4.48 431.02 4.26C430.44 4.03 429.79 3.92 429.09 3.92L425.66 3.92L424.47 3.92L424.47 4.19C424.47 4.34 424.56 4.42 424.75 4.44L424.89 4.44C424.96 4.44 425.05 4.45 425.19 4.45C425.33 4.45 425.49 4.47 425.66 4.47L425.66 13.26C425.49 13.26 425.33 13.27 425.19 13.27C425.05 13.27 424.96 13.29 424.89 13.29L424.75 13.29C424.56 13.30 424.47 13.38 424.47 13.54L424.47 13.82L425.66 13.82L429.09 13.82C429.79 13.82 430.44 13.71 431.02 13.48C431.59 13.26 432.08 12.92 432.50 12.49C432.92 12.05 433.24 11.54 433.47 10.92C433.69 10.30 433.82 9.63 433.82 8.86C433.82 8.11 433.69 7.42 433.47 6.80ZM432.78 10.72C432.59 11.27 432.33 11.72 431.98 12.10C431.63 12.47 431.21 12.75 430.72 12.95C430.23 13.15 429.69 13.24 429.09 13.24L426.37 13.24L426.37 4.49L429.09 4.49C429.69 4.49 430.23 4.59 430.72 4.79C431.21 4.98 431.63 5.26 431.98 5.64C432.33 6.02 432.59 6.47 432.78 7.01C432.98 7.56 433.08 8.18 433.08 8.86C433.08 9.56 432.98 10.18 432.78 10.72ZM460.47 13.29L460.38 13.29L460.19 13.29C460.11 13.29 460.03 13.27 459.94 13.27L456.97 9.53C456.89 9.42 456.78 9.32 456.67 9.25C457.10 9.21 457.49 9.11 457.84 8.96C458.19 8.81 458.47 8.61 458.72 8.37C458.96 8.13 459.16 7.85 459.28 7.55C459.41 7.24 459.48 6.89 459.48 6.51C459.48 5.66 459.20 5.03 458.64 4.58C458.08 4.14 457.23 3.92 456.08 3.92L453.67 3.92L452.49 3.92L452.49 4.19C452.49 4.34 452.58 4.42 452.76 4.44L452.90 4.44C452.97 4.44 453.07 4.45 453.21 4.45C453.35 4.45 453.50 4.47 453.67 4.47L453.67 13.26C453.50 13.26 453.35 13.27 453.21 13.27C453.07 13.27 452.97 13.29 452.90 13.29L452.76 13.29C452.58 13.30 452.48 13.38 452.48 13.54L452.48 13.82L453.67 13.82L454.38 13.82L455.56 13.82L455.56 13.54C455.56 13.38 455.46 13.30 455.28 13.29L455.14 13.29C455.07 13.29 454.97 13.27 454.83 13.27C454.69 13.27 454.55 13.26 454.38 13.26L454.38 9.34L455.56 9.34C455.76 9.34 455.90 9.35 455.98 9.39C456.06 9.44 456.15 9.52 456.23 9.62L459.41 13.64C459.47 13.71 459.51 13.75 459.56 13.78C459.62 13.80 459.69 13.82 459.76 13.82L459.83 13.82L460.38 13.82L460.74 13.82L460.74 13.54C460.74 13.38 460.66 13.30 460.47 13.29ZM455.98 8.81L454.38 8.81L454.38 4.48L456.08 4.48C456.96 4.48 457.63 4.66 458.09 5.00C458.56 5.33 458.78 5.87 458.78 6.57C458.78 6.92 458.72 7.21 458.60 7.49C458.47 7.77 458.28 7.99 458.04 8.19C457.80 8.39 457.51 8.55 457.16 8.65C456.81 8.75 456.41 8.81 455.98 8.81ZM477.05 3.92L476.34 3.92L474.98 3.92L474.98 4.19C474.98 4.34 475.08 4.42 475.26 4.44L475.43 4.44C475.52 4.44 475.66 4.45 475.83 4.45C476.00 4.45 476.17 4.47 476.34 4.47L476.34 10.04C476.34 10.50 476.27 10.92 476.13 11.33C475.99 11.73 475.79 12.08 475.52 12.38C475.26 12.67 474.95 12.89 474.57 13.06C474.19 13.23 473.77 13.31 473.30 13.31C472.82 13.31 472.39 13.23 472.01 13.06C471.63 12.89 471.31 12.66 471.06 12.36C470.79 12.07 470.61 11.72 470.47 11.33C470.33 10.93 470.26 10.50 470.26 10.04L470.26 4.47C470.43 4.47 470.60 4.45 470.76 4.45C470.93 4.45 471.07 4.44 471.17 4.44L471.34 4.44C471.52 4.42 471.62 4.34 471.62 4.19L471.62 3.92L470.26 3.92L469.55 3.92L468.37 3.92L468.37 4.19C468.37 4.34 468.45 4.42 468.64 4.44L468.78 4.44C468.85 4.44 468.94 4.45 469.08 4.45C469.22 4.45 469.38 4.47 469.55 4.47L469.55 10.04C469.55 10.58 469.63 11.09 469.80 11.56C469.97 12.04 470.22 12.46 470.54 12.81C470.86 13.16 471.27 13.44 471.73 13.64C472.19 13.83 472.72 13.93 473.30 13.93C473.87 13.93 474.39 13.83 474.85 13.64C475.31 13.44 475.72 13.16 476.04 12.81C476.36 12.46 476.62 12.04 476.78 11.56C476.95 11.09 477.05 10.58 477.05 10.04L477.05 4.47C477.22 4.47 477.36 4.45 477.50 4.45C477.64 4.45 477.75 4.44 477.82 4.44L477.95 4.44C478.13 4.42 478.23 4.34 478.23 4.19L478.23 3.92ZM495.08 3.92L494.45 3.92L493.23 3.92L493.23 4.19C493.23 4.34 493.33 4.42 493.51 4.44L493.65 4.44C493.72 4.44 493.84 4.45 493.98 4.45C494.12 4.45 494.28 4.47 494.45 4.47L494.45 12.22C494.45 12.35 494.45 12.49 494.47 12.63L488.05 4.05C488.01 3.99 487.98 3.95 487.94 3.93C487.90 3.92 487.86 3.91 487.79 3.91L487.44 3.91L486.25 3.91L486.25 4.19C486.25 4.34 486.35 4.42 486.53 4.44L486.67 4.44C486.74 4.44 486.84 4.45 486.98 4.45C487.12 4.45 487.27 4.47 487.44 4.47L487.44 13.26C487.27 13.26 487.12 13.27 486.98 13.27C486.84 13.27 486.74 13.29 486.67 13.29L486.53 13.29C486.35 13.30 486.25 13.38 486.25 13.54L486.25 13.82L487.44 13.82L488.05 13.82L489.27 13.82L489.27 13.54C489.27 13.38 489.17 13.30 488.99 13.29L488.85 13.29C488.78 13.29 488.66 13.27 488.52 13.27C488.38 13.27 488.22 13.26 488.05 13.26L488.05 5.49C488.05 5.36 488.05 5.22 488.04 5.08L494.48 13.68C494.55 13.78 494.62 13.82 494.73 13.82L495.08 13.82L495.08 4.47C495.25 4.47 495.39 4.45 495.53 4.45C495.67 4.45 495.78 4.44 495.85 4.44L495.98 4.44C496.16 4.42 496.26 4.34 496.26 4.19L496.26 3.92ZM521.79 3.92L521.44 3.92L515.86 3.92L514.67 3.92L514.67 4.19C514.67 4.34 514.77 4.42 514.95 4.44L515.09 4.44C515.16 4.44 515.26 4.45 515.40 4.45C515.54 4.45 515.69 4.47 515.86 4.47L515.86 13.26C515.69 13.26 515.54 13.27 515.40 13.27C515.26 13.27 515.16 13.29 515.09 13.29L514.95 13.29C514.77 13.30 514.67 13.38 514.67 13.54L514.67 13.82L515.86 13.82L516.57 13.82L517.75 13.82L517.75 13.54C517.75 13.38 517.66 13.30 517.48 13.29L517.34 13.29C517.27 13.29 517.17 13.27 517.03 13.27C516.89 13.27 516.74 13.26 516.57 13.26L516.57 9.27L520.27 9.27L520.27 8.67L516.57 8.67L516.57 4.51L521.18 4.51C521.21 5.18 521.23 5.56 521.23 5.63C521.25 5.85 521.35 5.96 521.54 5.96L521.88 5.96L521.88 3.92ZM538.48 13.22L538.02 13.17L534.24 3.91L533.53 3.91L529.73 13.17L529.28 13.22C529.10 13.23 529.02 13.33 529.02 13.50L529.02 13.82L529.47 13.82L529.76 13.82L530.01 13.82L530.11 13.82L531.43 13.82L531.43 13.50C531.43 13.31 531.31 13.23 531.10 13.22C531.09 13.22 531.06 13.20 531.02 13.20C530.98 13.20 530.92 13.19 530.82 13.19C530.73 13.19 530.60 13.19 530.46 13.17L531.44 10.75L531.51 10.57L536.24 10.57L536.31 10.75L537.29 13.17C537.15 13.19 537.04 13.19 536.94 13.19C536.84 13.19 536.77 13.20 536.73 13.20C536.69 13.20 536.66 13.22 536.65 13.22C536.44 13.23 536.33 13.31 536.33 13.50L536.33 13.82L537.64 13.82L537.74 13.82L538.01 13.82L538.29 13.82L538.75 13.82L538.75 13.50C538.75 13.33 538.66 13.23 538.48 13.22ZM533.68 5.22C533.71 5.14 533.75 5.04 533.78 4.94C533.81 4.84 533.85 4.75 533.88 4.63C533.90 4.75 533.95 4.84 533.97 4.94C534.00 5.04 534.04 5.12 534.07 5.21L536.03 10.04L531.73 10.04ZM552.71 9.91C552.57 9.65 552.37 9.39 552.13 9.21C551.89 9.03 551.64 8.88 551.35 8.75C551.05 8.62 550.73 8.51 550.42 8.41C550.12 8.32 549.81 8.20 549.51 8.11C549.22 7.99 548.95 7.87 548.72 7.71C548.48 7.56 548.30 7.38 548.16 7.15C548.02 6.93 547.93 6.65 547.93 6.31C547.93 6.06 547.99 5.82 548.09 5.59C548.18 5.35 548.32 5.15 548.51 4.97C548.69 4.79 548.91 4.65 549.19 4.55C549.47 4.45 549.78 4.40 550.14 4.40C550.82 4.40 551.43 4.51 551.99 4.75C552.03 5.54 552.06 5.99 552.06 6.06C552.08 6.29 552.16 6.41 552.36 6.41L552.69 6.41L552.69 4.38C551.81 4.00 550.97 3.81 550.14 3.81C549.68 3.81 549.28 3.88 548.91 4.02C548.55 4.16 548.25 4.34 548.02 4.58C547.78 4.82 547.58 5.08 547.46 5.39C547.33 5.70 547.27 6.02 547.27 6.36C547.27 6.78 547.34 7.14 547.48 7.42C547.62 7.70 547.82 7.92 548.06 8.12C548.30 8.32 548.55 8.46 548.84 8.58C549.14 8.71 549.46 8.82 549.77 8.92C550.07 9.02 550.37 9.11 550.68 9.21C550.97 9.31 551.24 9.45 551.47 9.60C551.71 9.76 551.89 9.94 552.03 10.16C552.17 10.39 552.24 10.68 552.24 11.03C552.24 11.35 552.19 11.66 552.08 11.94C551.96 12.22 551.81 12.46 551.60 12.67C551.39 12.88 551.12 13.05 550.82 13.16C550.51 13.29 550.16 13.33 549.77 13.33C548.98 13.33 548.32 13.20 547.79 12.95C547.78 12.75 547.78 12.54 547.76 12.32C547.75 12.10 547.75 11.91 547.74 11.76C547.72 11.61 547.72 11.52 547.72 11.51C547.71 11.28 547.61 11.17 547.41 11.17L547.08 11.17L547.08 13.02L547.08 13.20L547.08 13.38C547.93 13.75 548.81 13.93 549.74 13.93C550.24 13.93 550.69 13.85 551.08 13.69C551.47 13.54 551.81 13.31 552.08 13.05C552.34 12.78 552.57 12.46 552.71 12.10C552.85 11.73 552.92 11.34 552.92 10.92C552.92 10.51 552.85 10.18 552.71 9.91ZM568.69 3.92L568.50 3.92L561.20 3.92L560.99 3.92L560.90 3.92L560.90 5.96L561.25 5.96C561.44 5.96 561.53 5.85 561.54 5.63C561.54 5.53 561.57 5.17 561.60 4.52L564.49 4.52L564.49 13.26C564.33 13.26 564.19 13.27 564.05 13.27C563.91 13.27 563.79 13.29 563.72 13.29L563.60 13.29C563.42 13.30 563.32 13.38 563.32 13.54L563.32 13.82L564.49 13.82L565.21 13.82L566.40 13.82L566.40 13.54C566.40 13.38 566.30 13.30 566.12 13.29L565.98 13.29C565.91 13.29 565.81 13.27 565.67 13.27C565.53 13.27 565.38 13.26 565.21 13.26L565.21 4.52L568.09 4.52C568.13 5.24 568.15 5.60 568.15 5.63C568.16 5.85 568.26 5.96 568.46 5.96L568.79 5.96L568.79 3.92ZM578.09 3.92L576.90 3.92L576.90 4.19C576.90 4.34 577.00 4.42 577.18 4.44L577.32 4.44C577.39 4.44 577.49 4.45 577.63 4.45C577.77 4.45 577.92 4.47 578.09 4.47L578.09 13.26C577.92 13.26 577.77 13.27 577.63 13.27C577.49 13.27 577.39 13.29 577.32 13.29L577.18 13.29C577.00 13.30 576.91 13.38 576.91 13.54L576.91 13.82L578.09 13.82L584.02 13.82L584.02 13.22L584.02 11.76L583.67 11.76C583.48 11.76 583.39 11.89 583.38 12.11C583.38 12.14 583.37 12.19 583.37 12.29C583.37 12.39 583.37 12.53 583.35 12.74C583.34 12.95 583.32 13.09 583.32 13.22L578.80 13.22L578.80 9.09L582.75 9.09L582.75 8.51L578.80 8.51L578.80 4.51L583.32 4.51C583.35 5.12 583.38 5.50 583.38 5.63C583.39 5.85 583.48 5.96 583.67 5.96L584.02 5.96L584.02 4.51L584.02 3.92ZM600.60 13.29L600.50 13.29L600.32 13.29C600.24 13.29 600.15 13.27 600.07 13.27L597.10 9.53C597.02 9.42 596.90 9.32 596.79 9.25C597.23 9.21 597.62 9.11 597.97 8.96C598.32 8.81 598.60 8.61 598.85 8.37C599.09 8.13 599.28 7.85 599.41 7.55C599.54 7.24 599.61 6.89 599.61 6.51C599.61 5.66 599.33 5.03 598.77 4.58C598.21 4.14 597.35 3.92 596.20 3.92L593.80 3.92L592.62 3.92L592.62 4.19C592.62 4.34 592.70 4.42 592.89 4.44L593.03 4.44C593.10 4.44 593.19 4.45 593.33 4.45C593.47 4.45 593.63 4.47 593.80 4.47L593.80 13.26C593.63 13.26 593.47 13.27 593.33 13.27C593.19 13.27 593.10 13.29 593.03 13.29L592.89 13.29C592.70 13.30 592.61 13.38 592.61 13.54L592.61 13.82L593.80 13.82L594.51 13.82L595.69 13.82L595.69 13.54C595.69 13.38 595.59 13.30 595.41 13.29L595.27 13.29C595.20 13.29 595.10 13.27 594.96 13.27C594.82 13.27 594.68 13.26 594.51 13.26L594.51 9.34L595.69 9.34C595.88 9.34 596.02 9.35 596.11 9.39C596.19 9.44 596.27 9.52 596.36 9.62L599.54 13.64C599.59 13.71 599.63 13.75 599.69 13.78C599.75 13.80 599.82 13.82 599.89 13.82L599.96 13.82L600.50 13.82L600.87 13.82L600.87 13.54C600.87 13.38 600.78 13.30 600.60 13.29ZM596.11 8.81L594.51 8.81L594.51 4.48L596.20 4.48C597.09 4.48 597.76 4.66 598.22 5.00C598.68 5.33 598.91 5.87 598.91 6.57C598.91 6.92 598.85 7.21 598.72 7.49C598.60 7.77 598.40 7.99 598.16 8.19C597.93 8.39 597.63 8.55 597.28 8.65C596.93 8.75 596.54 8.81 596.11 8.81Z"></path></g></svg>